<?xml version="1.0" encoding="utf-8"?>
<!-- Generator: Adobe Illustrator 22.1.0, SVG Export Plug-In . SVG Version: 6.00 Build 0)  -->
<svg version="1.1" id="Layer_1" xmlns="http://www.w3.org/2000/svg" xmlns:xlink="http://www.w3.org/1999/xlink" x="0px" y="0px"
	 viewBox="0 0 50 50" style="enable-background:new 0 0 50 50;" xml:space="preserve">
<style type="text/css">
	.st0{fill:#F2F2F2;}
</style>
<g>
	<path class="st0" d="M47,12H3c-1.6,0-3-1.3-3-3v0c0-1.6,1.3-3,3-3h44c1.6,0,3,1.3,3,3v0C50,10.7,48.7,12,47,12z"/>
</g>
<g>
	<path class="st0" d="M47,42H3c-1.6,0-3-1.3-3-3v0c0-1.6,1.3-3,3-3h44c1.6,0,3,1.3,3,3v0C50,40.7,48.7,42,47,42z"/>
</g>
<g>
	<path class="st0" d="M47,27H3c-1.6,0-3-1.3-3-3v0c0-1.6,1.3-3,3-3h44c1.6,0,3,1.3,3,3v0C50,25.7,48.7,27,47,27z"/>
</g>
</svg>
